<?xml version="1.0" encoding="utf-8"?>
<!-- Generator: Adobe Illustrator 24.1.2, SVG Export Plug-In . SVG Version: 6.00 Build 0)  -->
<svg version="1.1" id="Layer_1" xmlns="http://www.w3.org/2000/svg" xmlns:xlink="http://www.w3.org/1999/xlink" x="0px" y="0px"
	 viewBox="0 0 174.8 54.2" style="enable-background:new 0 0 174.8 54.2;" xml:space="preserve">
<style type="text/css">
	.st0{enable-background:new    ;}
	.st1{fill:#FFFFFF;}
	.st2{fill:none;stroke:#FFFFFF;stroke-miterlimit:10;}
	.st3{fill:#B8D547;}
</style>
<g class="st0">
	<path class="st1" d="M87.3,12.3c0.5-0.6,1.2-1.1,2-1.4c0.8-0.4,1.6-0.6,2.4-0.6c0.5,0,1,0.1,1.4,0.2c0.4,0.1,0.8,0.4,1.2,0.7
		c1,0.7,1.5,1.7,1.5,3c-0.1,0.9-0.4,1.8-1,2.5c-0.5,0.8-1.2,1.3-2.1,1.6c-0.5,0.1-0.9,0.1-1.3,0.1c-0.4,0-0.8-0.1-1.1-0.3
		c-0.3-0.2-0.6-0.5-0.7-1s-0.2-0.9-0.1-1.3c0.3-0.6,0.8-0.9,1.5-0.9c0.2,0,0.3,0,0.4,0l0.3,0.2c-0.4,0.3-0.7,0.6-0.9,0.9
		c-0.2,0.3-0.3,0.6-0.2,1c0.2,0.3,0.5,0.6,0.8,0.8c0.3,0.2,0.7,0.3,1.1,0.3c0.3,0,0.6,0,0.9-0.1c0.4-0.2,0.8-0.5,1-0.8
		c0.3-0.4,0.4-0.8,0.5-1.2c0.1-0.3,0.2-0.6,0.2-1c0-1.1-0.3-1.9-1-2.6s-1.2-1-1.6-1.2s-0.9-0.2-1.5-0.2c-0.5,0-1,0-1.5,0.1
		c-0.7,0.2-1.4,0.7-2,1.5c-0.6,0.7-1,1.5-1.1,2.2c0,1.3,0.4,3,1.3,5.3c0.9,2.3,1.3,4,1.3,5.2c0,0.6,0,1.1-0.1,1.5s-0.4,1.3-1,2.6
		c-0.6,1.3-1.9,2.5-3.8,3.7c-2,1.2-4.1,1.8-6.4,1.8c-0.3,0-0.5,0-0.7,0h-0.4c-2,0-3.8-0.5-5.5-1.5c-1.6-1-2.8-2.4-3.5-4.2
		c-0.2-0.7-0.3-1.4-0.3-2c0-0.9,0.1-1.7,0.4-2.4c0.2-0.8,0.6-1.5,1.2-2.2c2.3-2.4,5.4-3.7,9.2-3.7c0.9,0.1,1.7,0.4,2.5,0.9
		c0.8,0.5,1.5,1.1,2.1,1.9c0.4,0.8,0.7,1.6,0.7,2.7c0,1.1-0.3,2.1-0.9,2.9C81.8,28,81,28.6,80.1,29c-0.9,0.4-2,0.6-3.1,0.6
		c-0.4,0-0.8,0-1.2-0.1c-0.4-0.1-0.8-0.3-1.4-0.7c-0.5-0.4-0.9-0.9-1.2-1.5c0-0.7,0.1-1.3,0.2-1.8c0.2-0.5,0.5-0.8,1-1.1l1.3,0.2
		c-0.1,0.2-0.4,0.5-0.8,0.9c-0.4,0.4-0.7,0.9-0.7,1.3c0,0.2,0.1,0.5,0.2,0.7c0.3,0.7,0.7,1.1,1.3,1.3c0.6,0.2,1.3,0.3,2.2,0.3h0.7
		c1-0.4,1.9-1,2.6-1.9c0.7-0.9,1-1.9,1-3c0-0.9-0.2-1.7-0.7-2.4c-0.5-0.7-1.2-1.3-2.1-1.9c-0.9-0.6-1.9-0.9-3.1-0.9
		c-1.3,0-2.5,0.3-3.8,0.9c-1.2,0.7-2.2,1.7-2.8,2.9c-0.7,1.2-1,2.5-1,3.9c0,0.2,0,0.4,0,0.6c0,0.2,0.2,1.1,0.5,2.6
		c0.3,1.5,1.4,2.7,3.4,3.4c2,0.7,3.6,1.1,5,1.1c1.4,0,2.7-0.2,4-0.7c1.3-0.5,2.4-1.2,3.3-2.1c2-1.8,3-4,3-6.7c0-0.6-0.1-1.3-0.2-1.9
		c-0.4-1.1-0.8-2.3-1.2-3.6c-0.4-1.3-0.6-2.4-0.6-3.4c0-0.8,0.1-1.5,0.3-2.1C86.3,13.5,86.7,12.9,87.3,12.3z"/>
	<path class="st1" d="M93.9,27.2c0.3-0.1,0.5-0.1,0.6-0.1c0.7,0,1,0.3,0.9,0.8c-0.1,1.2-0.7,2-1.7,2.4c-1,0.4-2,0.7-2.9,0.9
		c-0.3,0.2-0.5,0.4-0.6,0.6C90,32.1,90,32.4,90,32.7c0,0.3,0,0.6,0.1,0.9c0.3,0.6,0.8,0.9,1.5,0.9c0.2,0,0.5-0.1,1-0.3
		c0.5-0.2,1-0.5,1.5-0.9c0.5-0.4,0.9-0.9,1.1-1.7c0,0.7-0.3,1.3-1,1.8c-0.7,0.5-1.4,0.9-2.1,1.2c-0.7,0.3-1.2,0.4-1.6,0.4
		c-0.4,0-0.7-0.1-1-0.2c-0.3-0.1-0.4-0.4-0.5-0.8c-0.1-0.4-0.1-0.7-0.1-1.1c0-1.3,0.5-2.5,1.5-3.5C91.3,28.3,92.5,27.6,93.9,27.2z
		 M93.7,27.8c-0.7,0.1-1.2,0.4-1.7,0.9s-0.8,1.1-1.1,1.9l0.3,0.2c0.7-0.2,1.3-0.5,1.9-0.9c0.6-0.5,0.9-1,0.9-1.6c0-0.1,0-0.2,0-0.3
		C94,27.8,93.9,27.8,93.7,27.8z"/>
	<path class="st1" d="M98.8,27.2c0.2-0.1,0.4,0,0.5,0.3c0.1,0.1,0.1,0.2,0,0.3c0,0.1-0.1,0.3-0.1,0.4c0.2,0.1,0.4,0.2,0.5,0.2
		c0.3,0,0.6-0.2,1-0.6c0.4-0.4,0.8-0.5,1.1-0.4c-0.1,0.2-0.6,0.6-1.4,1.5c-0.8,0.8-1.4,1.6-1.8,2.3c-0.4,0.7-0.6,1.2-0.7,1.4
		c-0.1,0.2-0.2,0.5-0.2,0.7c0,0.3,0.1,0.6,0.2,0.9c0.1,0.2,0.3,0.4,0.5,0.4c0.3,0,0.8-0.3,1.5-1c0.7-0.7,1.3-1.3,2-1.9
		c-0.6,0.8-1.1,1.4-1.6,1.8c-0.4,0.4-0.8,0.8-1.3,1.1s-0.9,0.5-1.2,0.5c-0.2,0-0.5-0.1-0.7-0.3c-0.3-0.2-0.4-0.5-0.4-0.9
		c0-0.2,0-0.4,0.1-0.6c0.1-0.2,0.2-0.4,0.4-0.8c0.2-0.4,0.6-1,1.2-1.8c0.6-0.8,1-1.3,1.2-1.6c-0.2-0.1-0.5-0.2-0.7-0.3
		c-0.2-0.1-0.4-0.1-0.6,0c-0.4,0.3-1,1-1.9,2.2c-0.9,1.1-1.3,1.7-1.4,1.8l0-0.2C96.4,30.6,97.6,28.9,98.8,27.2z"/>
	<path class="st1" d="M106.4,27.2c0.3-0.1,0.5-0.1,0.6-0.1c0.7,0,1,0.3,0.9,0.8c-0.1,1.2-0.7,2-1.7,2.4c-1,0.4-2,0.7-2.9,0.9
		c-0.3,0.2-0.5,0.4-0.6,0.6s-0.2,0.5-0.2,0.9c0,0.3,0,0.6,0.1,0.9c0.3,0.6,0.8,0.9,1.5,0.9c0.2,0,0.5-0.1,1-0.3
		c0.5-0.2,1-0.5,1.5-0.9c0.5-0.4,0.9-0.9,1.1-1.7c0,0.7-0.3,1.3-1,1.8c-0.7,0.5-1.4,0.9-2.1,1.2c-0.7,0.3-1.2,0.4-1.6,0.4
		c-0.4,0-0.7-0.1-1-0.2c-0.3-0.1-0.4-0.4-0.5-0.8c-0.1-0.4-0.1-0.7-0.1-1.1c0-1.3,0.5-2.5,1.5-3.5C103.9,28.3,105.1,27.6,106.4,27.2
		z M106.3,27.8c-0.7,0.1-1.2,0.4-1.7,0.9c-0.4,0.5-0.8,1.1-1.1,1.9l0.3,0.2c0.7-0.2,1.3-0.5,1.9-0.9c0.6-0.5,0.9-1,0.9-1.6
		c0-0.1,0-0.2,0-0.3C106.6,27.8,106.5,27.8,106.3,27.8z"/>
	<path class="st1" d="M110.9,27.3c0.2-0.1,0.4-0.2,0.7-0.2c0.5,0,0.7,0.2,0.6,0.6c0.1-0.1,0.4-0.1,0.9-0.3c0.5-0.1,0.8-0.2,0.9-0.2
		c-1.3,0.4-2.5,1.5-3.5,3.1c-0.8,1.4-1.6,2.8-2.4,4.1c-0.3,0.1-0.6,0.2-1,0.2c-0.2,0-0.4-0.1-0.5-0.2L110.9,27.3z M114.1,27.2
		c0.4-0.1,0.7-0.1,1-0.1c0.4,0,0.7,0,1,0.1c0.3,0.1,0.5,0.3,0.6,0.8c-0.2,0.6-0.7,1.5-1.5,2.9c-0.9,1.3-1.4,2.3-1.6,3
		c-0.1,0.3,0.1,0.5,0.5,0.5c0.2,0,0.6-0.1,1-0.2c0.4-0.1,0.9-0.4,1.5-0.7c0.6-0.4,1.2-1,1.7-1.8c-0.2,0.5-0.4,0.9-0.6,1.2
		c-0.3,0.2-0.6,0.5-1.1,0.9c-0.5,0.3-1,0.6-1.7,0.9c-0.6,0.3-1.2,0.4-1.6,0.4c-0.5,0-0.8-0.2-0.9-0.7c-0.1-0.4,0-0.7,0.2-1.1
		c0.2-0.3,0.4-0.7,0.6-1c0.3-0.7,0.7-1.3,1.1-1.9c0.4-0.6,0.8-1.2,1.2-1.7c0.1-0.2,0.1-0.5-0.2-0.7c-0.2-0.3-0.5-0.4-0.8-0.5H114.1z
		"/>
	<path class="st1" d="M122.7,27.2c0.3-0.1,0.5-0.1,0.6-0.1c0.7,0,1,0.3,0.9,0.8c-0.1,1.2-0.7,2-1.7,2.4c-1,0.4-2,0.7-2.9,0.9
		c-0.3,0.2-0.5,0.4-0.6,0.6c-0.1,0.2-0.2,0.5-0.2,0.9c0,0.3,0,0.6,0.1,0.9c0.3,0.6,0.8,0.9,1.5,0.9c0.2,0,0.5-0.1,1-0.3
		c0.5-0.2,1-0.5,1.5-0.9c0.5-0.4,0.9-0.9,1.1-1.7c0,0.7-0.3,1.3-1,1.8c-0.7,0.5-1.4,0.9-2.1,1.2c-0.7,0.3-1.2,0.4-1.6,0.4
		c-0.4,0-0.7-0.1-1-0.2c-0.3-0.1-0.4-0.4-0.5-0.8c-0.1-0.4-0.1-0.7-0.1-1.1c0-1.3,0.5-2.5,1.5-3.5C120.1,28.3,121.3,27.6,122.7,27.2
		z M122.6,27.8c-0.7,0.1-1.2,0.4-1.7,0.9s-0.8,1.1-1.1,1.9l0.3,0.2c0.7-0.2,1.3-0.5,1.9-0.9c0.6-0.5,0.9-1,0.9-1.6
		c0-0.1,0-0.2,0-0.3C122.9,27.8,122.7,27.8,122.6,27.8z"/>
	<path class="st1" d="M145.3,12.3c0.5-0.6,1.2-1.1,2-1.4c0.8-0.4,1.6-0.6,2.4-0.6c0.5,0,1,0.1,1.4,0.2c0.4,0.1,0.8,0.4,1.2,0.7
		c1,0.7,1.5,1.7,1.5,3c-0.1,0.9-0.4,1.8-1,2.5c-0.5,0.8-1.2,1.3-2.1,1.6c-0.5,0.1-0.9,0.1-1.3,0.1c-0.4,0-0.8-0.1-1.1-0.3
		c-0.3-0.2-0.6-0.5-0.7-1c-0.2-0.5-0.2-0.9-0.1-1.3c0.3-0.6,0.8-0.9,1.5-0.9c0.2,0,0.3,0,0.4,0l0.3,0.2c-0.4,0.3-0.7,0.6-0.9,0.9
		c-0.2,0.3-0.3,0.6-0.2,1c0.2,0.3,0.5,0.6,0.8,0.8c0.3,0.2,0.7,0.3,1.1,0.3c0.3,0,0.6,0,0.9-0.1c0.4-0.2,0.8-0.5,1-0.8
		c0.3-0.4,0.4-0.8,0.5-1.2c0.1-0.3,0.2-0.6,0.2-1c0-1.1-0.3-1.9-1-2.6c-0.6-0.6-1.2-1-1.6-1.2c-0.4-0.1-0.9-0.2-1.5-0.2
		c-0.5,0-1,0-1.5,0.1c-0.7,0.2-1.4,0.7-2,1.5c-0.6,0.7-1,1.5-1.1,2.2c0,1.3,0.4,3,1.3,5.3c0.9,2.3,1.3,4,1.3,5.2
		c0,0.6,0,1.1-0.1,1.5c-0.1,0.4-0.4,1.3-1,2.6c-0.6,1.3-1.9,2.5-3.8,3.7c-2,1.2-4.1,1.8-6.4,1.8c-0.3,0-0.5,0-0.7,0h-0.4
		c-2,0-3.8-0.5-5.5-1.5c-1.6-1-2.8-2.4-3.5-4.2c-0.2-0.7-0.3-1.4-0.3-2c0-0.9,0.1-1.7,0.4-2.4c0.2-0.8,0.6-1.5,1.2-2.2
		c2.3-2.4,5.4-3.7,9.2-3.7c0.9,0.1,1.7,0.4,2.5,0.9s1.5,1.1,2.1,1.9c0.4,0.8,0.7,1.6,0.7,2.7c0,1.1-0.3,2.1-0.9,2.9
		c-0.6,0.8-1.4,1.4-2.3,1.8c-0.9,0.4-2,0.6-3.1,0.6c-0.4,0-0.8,0-1.2-0.1c-0.4-0.1-0.8-0.3-1.4-0.7c-0.5-0.4-0.9-0.9-1.2-1.5
		c0-0.7,0.1-1.3,0.2-1.8c0.2-0.5,0.5-0.8,1-1.1l1.3,0.2c-0.1,0.2-0.4,0.5-0.8,0.9c-0.4,0.4-0.7,0.9-0.7,1.3c0,0.2,0.1,0.5,0.2,0.7
		c0.3,0.7,0.7,1.1,1.3,1.3c0.6,0.2,1.3,0.3,2.2,0.3h0.7c1-0.4,1.9-1,2.6-1.9c0.7-0.9,1-1.9,1-3c0-0.9-0.2-1.7-0.7-2.4
		c-0.5-0.7-1.2-1.3-2.1-1.9c-0.9-0.6-1.9-0.9-3.1-0.9c-1.3,0-2.5,0.3-3.8,0.9c-1.2,0.7-2.2,1.7-2.8,2.9c-0.7,1.2-1,2.5-1,3.9
		c0,0.2,0,0.4,0,0.6c0,0.2,0.2,1.1,0.5,2.6c0.3,1.5,1.4,2.7,3.4,3.4c2,0.7,3.6,1.1,5,1.1c1.4,0,2.7-0.2,4-0.7
		c1.3-0.5,2.4-1.2,3.3-2.1c2-1.8,3-4,3-6.7c0-0.6-0.1-1.3-0.2-1.9c-0.4-1.1-0.8-2.3-1.2-3.6c-0.4-1.3-0.6-2.4-0.6-3.4
		c0-0.8,0.1-1.5,0.3-2.1C144.3,13.5,144.7,12.9,145.3,12.3z"/>
	<path class="st1" d="M152.5,23.1c0.1,0,0.3,0,0.6-0.1c0.3-0.1,0.5-0.1,0.6-0.1c0.1,0,0.3,0,0.4,0.1l-2.5,4.3l2.2,0.1v0.1h-0.5
		c-0.5,0-0.8,0-1,0c-0.4,0-0.7,0.2-1,0.5c-0.3,0.4-0.7,1-1.2,1.8c-0.5,0.8-0.9,1.5-1.3,2c-0.3,0.5-0.6,0.9-0.8,1.2
		c-0.2,0.3-0.3,0.5-0.3,0.7c0,0.3,0.2,0.5,0.5,0.7c0.7,0,1.5-0.3,2.3-0.9c0.9-0.8,1.6-1.4,2-1.7c0,0.1,0,0.2,0,0.3
		c-0.7,0.6-1.5,1.2-2.2,1.8c-0.9,0.7-1.8,1-2.5,1c-0.5,0-1-0.2-1.4-0.5c-0.2-0.2-0.2-0.4,0-0.7C148.6,30.4,150.6,26.9,152.5,23.1z"
		/>
	<path class="st1" d="M155.5,29.9c-0.4,0.5-0.7,1-0.9,1.4c-0.2,0.4-0.4,0.9-0.7,1.5c0.1,0.8,0.2,1.2,0.2,1.4
		c0.1,0.1,0.2,0.3,0.5,0.3c0.1,0.1,0.3,0.1,0.5,0.1c0.2-0.1,0.4-0.1,0.6-0.2c-0.5,0.4-1.1,0.5-1.8,0.5c-0.4,0-0.8-0.1-1-0.3
		c-0.4-0.5-0.5-1-0.5-1.5c0-0.7,0.3-1.3,0.8-2c0.5-0.7,1-1.2,1.4-1.7c0.4-0.5,1.1-1,2-1.6c1-0.6,1.8-0.9,2.7-0.9
		c0.6,0,1,0.1,1.3,0.4c0.3,0.3,0.5,0.4,0.6,0.4c0.3-0.1,0.6-0.2,0.7-0.2v0.5l-3.5,5.8c-0.1,0.2,0,0.5,0.2,0.7
		c0.2,0.2,0.3,0.3,0.5,0.2c0.9-0.2,1.7-0.5,2.3-0.9c0.6-0.4,1.2-0.9,1.7-1.3c-0.4,0.6-1.2,1.2-2.2,1.7c-1,0.6-1.9,0.8-2.6,0.8
		c-0.4,0-0.7-0.1-0.8-0.2c-0.1-0.1-0.2-0.3-0.3-0.5c0-0.2-0.1-0.3-0.2-0.4c-0.2-0.1-0.4,0-0.6,0.2s-0.4,0.3-0.4,0.3
		c0.9-0.7,1.7-1.5,2.3-2.4c0.6-1,1.2-2.2,1.9-3.6c-0.2-0.3-0.4-0.5-0.6-0.6c-0.2-0.2-0.3-0.3-0.5-0.3c-0.2-0.1-0.4-0.1-0.5-0.1
		c-0.6,0-1.2,0.3-1.7,0.8C156.6,28.6,156,29.2,155.5,29.9z"/>
	<path class="st1" d="M158.5,41.7c0.1,0.2,0.2,0.4,0.4,0.5c0.2,0.1,0.4,0.1,0.7,0.1c0.3,0,0.5,0,0.7-0.1c0.2-0.1,0.6-0.2,1.3-0.3
		c0.7-0.2,1.4-1,2.3-2.4c0.9-1.4,1.7-2.8,2.4-4.1l-1.1,0.3c0.1-0.1,0.4-0.3,0.8-0.6c0.5-0.3,0.7-0.6,0.7-1c-0.8,0.3-1.3,0.5-1.7,0.7
		c-0.4,0.1-0.8,0.2-1.2,0.2c-0.6,0-0.9-0.1-1-0.4c-0.1-0.3-0.2-0.5-0.2-0.8c0-0.2,0-0.4,0-0.5c0-0.1,0-0.2,0.1-0.3l3.5-5.8
		c0.1-0.1,0.3-0.2,0.6-0.2c0.2,0,0.4,0.1,0.7,0.2c-1.2,2.2-2.5,4.4-3.7,6.6c0.1,0,0.2,0.1,0.5,0.4c0.3,0.2,0.6,0.3,0.8,0.2
		c1.4-0.6,2.5-1.5,3.2-2.5c0.7-1,1.7-2.7,2.9-4.9c0.1,0.1,0.3,0.1,0.6,0c0.3-0.1,0.4-0.1,0.5-0.1c0.2,0,0.3,0.1,0.4,0.4
		c-0.9,1.2-1.7,2.5-2.5,3.8s-1.4,2.5-1.9,3.7c1-0.3,1.9-0.7,2.7-1.2c0.8-0.5,1.5-1.1,2.1-1.9c0.1,0,0.1,0.1,0.1,0.3
		c0,0.2,0,0.4,0,0.4c-1.2,0.9-2.1,1.5-2.9,1.9s-1.6,0.8-2.7,1c-1.2,2.1-2.5,3.8-3.8,5.1c-1.3,1.3-2.9,2.2-4.8,2.8
		c-0.4-0.1-0.7-0.1-1.1-0.2c-0.4-0.1-0.6-0.4-0.6-0.8c0-0.5,0.1-0.9,0.4-1.2c0.2-0.3,0.9-0.9,2-1.9c1.1-0.9,2-1.6,2.7-2
		c0.7-0.4,1.5-0.8,2.6-1.2c-1.4,0.9-2.8,1.7-4.2,2.6c-1,0.9-1.7,1.6-2,1.9c-0.3,0.3-0.4,0.6-0.4,1C158.4,41.4,158.5,41.5,158.5,41.7
		z"/>
</g>
<g class="st0">
	<path class="st2" d="M87.3,12.3c0.5-0.6,1.2-1.1,2-1.4c0.8-0.4,1.6-0.6,2.4-0.6c0.5,0,1,0.1,1.4,0.2c0.4,0.1,0.8,0.4,1.2,0.7
		c1,0.7,1.5,1.7,1.5,3c-0.1,0.9-0.4,1.8-1,2.5c-0.5,0.8-1.2,1.3-2.1,1.6c-0.5,0.1-0.9,0.1-1.3,0.1c-0.4,0-0.8-0.1-1.1-0.3
		c-0.3-0.2-0.6-0.5-0.7-1s-0.2-0.9-0.1-1.3c0.3-0.6,0.8-0.9,1.5-0.9c0.2,0,0.3,0,0.4,0l0.3,0.2c-0.4,0.3-0.7,0.6-0.9,0.9
		c-0.2,0.3-0.3,0.6-0.2,1c0.2,0.3,0.5,0.6,0.8,0.8c0.3,0.2,0.7,0.3,1.1,0.3c0.3,0,0.6,0,0.9-0.1c0.4-0.2,0.8-0.5,1-0.8
		c0.3-0.4,0.4-0.8,0.5-1.2c0.1-0.3,0.2-0.6,0.2-1c0-1.1-0.3-1.9-1-2.6s-1.2-1-1.6-1.2s-0.9-0.2-1.5-0.2c-0.5,0-1,0-1.5,0.1
		c-0.7,0.2-1.4,0.7-2,1.5c-0.6,0.7-1,1.5-1.1,2.2c0,1.3,0.4,3,1.3,5.3c0.9,2.3,1.3,4,1.3,5.2c0,0.6,0,1.1-0.1,1.5s-0.4,1.3-1,2.6
		c-0.6,1.3-1.9,2.5-3.8,3.7c-2,1.2-4.1,1.8-6.4,1.8c-0.3,0-0.5,0-0.7,0h-0.4c-2,0-3.8-0.5-5.5-1.5c-1.6-1-2.8-2.4-3.5-4.2
		c-0.2-0.7-0.3-1.4-0.3-2c0-0.9,0.1-1.7,0.4-2.4c0.2-0.8,0.6-1.5,1.2-2.2c2.3-2.4,5.4-3.7,9.2-3.7c0.9,0.1,1.7,0.4,2.5,0.9
		c0.8,0.5,1.5,1.1,2.1,1.9c0.4,0.8,0.7,1.6,0.7,2.7c0,1.1-0.3,2.1-0.9,2.9C81.8,28,81,28.6,80.1,29c-0.9,0.4-2,0.6-3.1,0.6
		c-0.4,0-0.8,0-1.2-0.1c-0.4-0.1-0.8-0.3-1.4-0.7c-0.5-0.4-0.9-0.9-1.2-1.5c0-0.7,0.1-1.3,0.2-1.8c0.2-0.5,0.5-0.8,1-1.1l1.3,0.2
		c-0.1,0.2-0.4,0.5-0.8,0.9c-0.4,0.4-0.7,0.9-0.7,1.3c0,0.2,0.1,0.5,0.2,0.7c0.3,0.7,0.7,1.1,1.3,1.3c0.6,0.2,1.3,0.3,2.2,0.3h0.7
		c1-0.4,1.9-1,2.6-1.9c0.7-0.9,1-1.9,1-3c0-0.9-0.2-1.7-0.7-2.4c-0.5-0.7-1.2-1.3-2.1-1.9c-0.9-0.6-1.9-0.9-3.1-0.9
		c-1.3,0-2.5,0.3-3.8,0.9c-1.2,0.7-2.2,1.7-2.8,2.9c-0.7,1.2-1,2.5-1,3.9c0,0.2,0,0.4,0,0.6c0,0.2,0.2,1.1,0.5,2.6
		c0.3,1.5,1.4,2.7,3.4,3.4c2,0.7,3.6,1.1,5,1.1c1.4,0,2.7-0.2,4-0.7c1.3-0.5,2.4-1.2,3.3-2.1c2-1.8,3-4,3-6.7c0-0.6-0.1-1.3-0.2-1.9
		c-0.4-1.1-0.8-2.3-1.2-3.6c-0.4-1.3-0.6-2.4-0.6-3.4c0-0.8,0.1-1.5,0.3-2.1C86.3,13.5,86.7,12.9,87.3,12.3z"/>
	<path class="st2" d="M93.9,27.2c0.3-0.1,0.5-0.1,0.6-0.1c0.7,0,1,0.3,0.9,0.8c-0.1,1.2-0.7,2-1.7,2.4c-1,0.4-2,0.7-2.9,0.9
		c-0.3,0.2-0.5,0.4-0.6,0.6C90,32.1,90,32.4,90,32.7c0,0.3,0,0.6,0.1,0.9c0.3,0.6,0.8,0.9,1.5,0.9c0.2,0,0.5-0.1,1-0.3
		c0.5-0.2,1-0.5,1.5-0.9c0.5-0.4,0.9-0.9,1.1-1.7c0,0.7-0.3,1.3-1,1.8c-0.7,0.5-1.4,0.9-2.1,1.2c-0.7,0.3-1.2,0.4-1.6,0.4
		c-0.4,0-0.7-0.1-1-0.2c-0.3-0.1-0.4-0.4-0.5-0.8c-0.1-0.4-0.1-0.7-0.1-1.1c0-1.3,0.5-2.5,1.5-3.5C91.3,28.3,92.5,27.6,93.9,27.2z
		 M93.7,27.8c-0.7,0.1-1.2,0.4-1.7,0.9s-0.8,1.1-1.1,1.9l0.3,0.2c0.7-0.2,1.3-0.5,1.9-0.9c0.6-0.5,0.9-1,0.9-1.6c0-0.1,0-0.2,0-0.3
		C94,27.8,93.9,27.8,93.7,27.8z"/>
	<path class="st2" d="M98.8,27.2c0.2-0.1,0.4,0,0.5,0.3c0.1,0.1,0.1,0.2,0,0.3c0,0.1-0.1,0.3-0.1,0.4c0.2,0.1,0.4,0.2,0.5,0.2
		c0.3,0,0.6-0.2,1-0.6c0.4-0.4,0.8-0.5,1.1-0.4c-0.1,0.2-0.6,0.6-1.4,1.5c-0.8,0.8-1.4,1.6-1.8,2.3c-0.4,0.7-0.6,1.2-0.7,1.4
		c-0.1,0.2-0.2,0.5-0.2,0.7c0,0.3,0.1,0.6,0.2,0.9c0.1,0.2,0.3,0.4,0.5,0.4c0.3,0,0.8-0.3,1.5-1c0.7-0.7,1.3-1.3,2-1.9
		c-0.6,0.8-1.1,1.4-1.6,1.8c-0.4,0.4-0.8,0.8-1.3,1.1s-0.9,0.5-1.2,0.5c-0.2,0-0.5-0.1-0.7-0.3c-0.3-0.2-0.4-0.5-0.4-0.9
		c0-0.2,0-0.4,0.1-0.6c0.1-0.2,0.2-0.4,0.4-0.8c0.2-0.4,0.6-1,1.2-1.8c0.6-0.8,1-1.3,1.2-1.6c-0.2-0.1-0.5-0.2-0.7-0.3
		c-0.2-0.1-0.4-0.1-0.6,0c-0.4,0.3-1,1-1.9,2.2c-0.9,1.1-1.3,1.7-1.4,1.8l0-0.2C96.4,30.6,97.6,28.9,98.8,27.2z"/>
	<path class="st2" d="M106.4,27.2c0.3-0.1,0.5-0.1,0.6-0.1c0.7,0,1,0.3,0.9,0.8c-0.1,1.2-0.7,2-1.7,2.4c-1,0.4-2,0.7-2.9,0.9
		c-0.3,0.2-0.5,0.4-0.6,0.6s-0.2,0.5-0.2,0.9c0,0.3,0,0.6,0.1,0.9c0.3,0.6,0.8,0.9,1.5,0.9c0.2,0,0.5-0.1,1-0.3
		c0.5-0.2,1-0.5,1.5-0.9c0.5-0.4,0.9-0.9,1.1-1.7c0,0.7-0.3,1.3-1,1.8c-0.7,0.5-1.4,0.9-2.1,1.2c-0.7,0.3-1.2,0.4-1.6,0.4
		c-0.4,0-0.7-0.1-1-0.2c-0.3-0.1-0.4-0.4-0.5-0.8c-0.1-0.4-0.1-0.7-0.1-1.1c0-1.3,0.5-2.5,1.5-3.5C103.9,28.3,105.1,27.6,106.4,27.2
		z M106.3,27.8c-0.7,0.1-1.2,0.4-1.7,0.9c-0.4,0.5-0.8,1.1-1.1,1.9l0.3,0.2c0.7-0.2,1.3-0.5,1.9-0.9c0.6-0.5,0.9-1,0.9-1.6
		c0-0.1,0-0.2,0-0.3C106.6,27.8,106.5,27.8,106.3,27.8z"/>
	<path class="st2" d="M110.9,27.3c0.2-0.1,0.4-0.2,0.7-0.2c0.5,0,0.7,0.2,0.6,0.6c0.1-0.1,0.4-0.1,0.9-0.3c0.5-0.1,0.8-0.2,0.9-0.2
		c-1.3,0.4-2.5,1.5-3.5,3.1c-0.8,1.4-1.6,2.8-2.4,4.1c-0.3,0.1-0.6,0.2-1,0.2c-0.2,0-0.4-0.1-0.5-0.2L110.9,27.3z M114.1,27.2
		c0.4-0.1,0.7-0.1,1-0.1c0.4,0,0.7,0,1,0.1c0.3,0.1,0.5,0.3,0.6,0.8c-0.2,0.6-0.7,1.5-1.5,2.9c-0.9,1.3-1.4,2.3-1.6,3
		c-0.1,0.3,0.1,0.5,0.5,0.5c0.2,0,0.6-0.1,1-0.2c0.4-0.1,0.9-0.4,1.5-0.7c0.6-0.4,1.2-1,1.7-1.8c-0.2,0.5-0.4,0.9-0.6,1.2
		c-0.3,0.2-0.6,0.5-1.1,0.9c-0.5,0.3-1,0.6-1.7,0.9c-0.6,0.3-1.2,0.4-1.6,0.4c-0.5,0-0.8-0.2-0.9-0.7c-0.1-0.4,0-0.7,0.2-1.1
		c0.2-0.3,0.4-0.7,0.6-1c0.3-0.7,0.7-1.3,1.1-1.9c0.4-0.6,0.8-1.2,1.2-1.7c0.1-0.2,0.1-0.5-0.2-0.7c-0.2-0.3-0.5-0.4-0.8-0.5H114.1z
		"/>
	<path class="st2" d="M122.7,27.2c0.3-0.1,0.5-0.1,0.6-0.1c0.7,0,1,0.3,0.9,0.8c-0.1,1.2-0.7,2-1.7,2.4c-1,0.4-2,0.7-2.9,0.9
		c-0.3,0.2-0.5,0.4-0.6,0.6c-0.1,0.2-0.2,0.5-0.2,0.9c0,0.3,0,0.6,0.1,0.9c0.3,0.6,0.8,0.9,1.5,0.9c0.2,0,0.5-0.1,1-0.3
		c0.5-0.2,1-0.5,1.5-0.9c0.5-0.4,0.9-0.9,1.1-1.7c0,0.7-0.3,1.3-1,1.8c-0.7,0.5-1.4,0.9-2.1,1.2c-0.7,0.3-1.2,0.4-1.6,0.4
		c-0.4,0-0.7-0.1-1-0.2c-0.3-0.1-0.4-0.4-0.5-0.8c-0.1-0.4-0.1-0.7-0.1-1.1c0-1.3,0.5-2.5,1.5-3.5C120.1,28.3,121.3,27.6,122.7,27.2
		z M122.6,27.8c-0.7,0.1-1.2,0.4-1.7,0.9s-0.8,1.1-1.1,1.9l0.3,0.2c0.7-0.2,1.3-0.5,1.9-0.9c0.6-0.5,0.9-1,0.9-1.6
		c0-0.1,0-0.2,0-0.3C122.9,27.8,122.7,27.8,122.6,27.8z"/>
	<path class="st2" d="M145.3,12.3c0.5-0.6,1.2-1.1,2-1.4c0.8-0.4,1.6-0.6,2.4-0.6c0.5,0,1,0.1,1.4,0.2c0.4,0.1,0.8,0.4,1.2,0.7
		c1,0.7,1.5,1.7,1.5,3c-0.1,0.9-0.4,1.8-1,2.5c-0.5,0.8-1.2,1.3-2.1,1.6c-0.5,0.1-0.9,0.1-1.3,0.1c-0.4,0-0.8-0.1-1.1-0.3
		c-0.3-0.2-0.6-0.5-0.7-1c-0.2-0.5-0.2-0.9-0.1-1.3c0.3-0.6,0.8-0.9,1.5-0.9c0.2,0,0.3,0,0.4,0l0.3,0.2c-0.4,0.3-0.7,0.6-0.9,0.9
		c-0.2,0.3-0.3,0.6-0.2,1c0.2,0.3,0.5,0.6,0.8,0.8c0.3,0.2,0.7,0.3,1.1,0.3c0.3,0,0.6,0,0.9-0.1c0.4-0.2,0.8-0.5,1-0.8
		c0.3-0.4,0.4-0.8,0.5-1.2c0.1-0.3,0.2-0.6,0.2-1c0-1.1-0.3-1.9-1-2.6c-0.6-0.6-1.2-1-1.6-1.2c-0.4-0.1-0.9-0.2-1.5-0.2
		c-0.5,0-1,0-1.5,0.1c-0.7,0.2-1.4,0.7-2,1.5c-0.6,0.7-1,1.5-1.1,2.2c0,1.3,0.4,3,1.3,5.3c0.9,2.3,1.3,4,1.3,5.2
		c0,0.6,0,1.1-0.1,1.5c-0.1,0.4-0.4,1.3-1,2.6c-0.6,1.3-1.9,2.5-3.8,3.7c-2,1.2-4.1,1.8-6.4,1.8c-0.3,0-0.5,0-0.7,0h-0.4
		c-2,0-3.8-0.5-5.5-1.5c-1.6-1-2.8-2.4-3.5-4.2c-0.2-0.7-0.3-1.4-0.3-2c0-0.9,0.1-1.7,0.4-2.4c0.2-0.8,0.6-1.5,1.2-2.2
		c2.3-2.4,5.4-3.7,9.2-3.7c0.9,0.1,1.7,0.4,2.5,0.9s1.5,1.1,2.1,1.9c0.4,0.8,0.7,1.6,0.7,2.7c0,1.1-0.3,2.1-0.9,2.9
		c-0.6,0.8-1.4,1.4-2.3,1.8c-0.9,0.4-2,0.6-3.1,0.6c-0.4,0-0.8,0-1.2-0.1c-0.4-0.1-0.8-0.3-1.4-0.7c-0.5-0.4-0.9-0.9-1.2-1.5
		c0-0.7,0.1-1.3,0.2-1.8c0.2-0.5,0.5-0.8,1-1.1l1.3,0.2c-0.1,0.2-0.4,0.5-0.8,0.9c-0.4,0.4-0.7,0.9-0.7,1.3c0,0.2,0.1,0.5,0.2,0.7
		c0.3,0.7,0.7,1.1,1.3,1.3c0.6,0.2,1.3,0.3,2.2,0.3h0.7c1-0.4,1.9-1,2.6-1.9c0.7-0.9,1-1.9,1-3c0-0.9-0.2-1.7-0.7-2.4
		c-0.5-0.7-1.2-1.3-2.1-1.9c-0.9-0.6-1.9-0.9-3.1-0.9c-1.3,0-2.5,0.3-3.8,0.9c-1.2,0.7-2.2,1.7-2.8,2.9c-0.7,1.2-1,2.5-1,3.9
		c0,0.2,0,0.4,0,0.6c0,0.2,0.2,1.1,0.5,2.6c0.3,1.5,1.4,2.7,3.4,3.4c2,0.7,3.6,1.1,5,1.1c1.4,0,2.7-0.2,4-0.7
		c1.3-0.5,2.4-1.2,3.3-2.1c2-1.8,3-4,3-6.7c0-0.6-0.1-1.3-0.2-1.9c-0.4-1.1-0.8-2.3-1.2-3.6c-0.4-1.3-0.6-2.4-0.6-3.4
		c0-0.8,0.1-1.5,0.3-2.1C144.3,13.5,144.7,12.9,145.3,12.3z"/>
	<path class="st2" d="M152.5,23.1c0.1,0,0.3,0,0.6-0.1c0.3-0.1,0.5-0.1,0.6-0.1c0.1,0,0.3,0,0.4,0.1l-2.5,4.3l2.2,0.1v0.1h-0.5
		c-0.5,0-0.8,0-1,0c-0.4,0-0.7,0.2-1,0.5c-0.3,0.4-0.7,1-1.2,1.8c-0.5,0.8-0.9,1.5-1.3,2c-0.3,0.5-0.6,0.9-0.8,1.2
		c-0.2,0.3-0.3,0.5-0.3,0.7c0,0.3,0.2,0.5,0.5,0.7c0.7,0,1.5-0.3,2.3-0.9c0.9-0.8,1.6-1.4,2-1.7c0,0.1,0,0.2,0,0.3
		c-0.7,0.6-1.5,1.2-2.2,1.8c-0.9,0.7-1.8,1-2.5,1c-0.5,0-1-0.2-1.4-0.5c-0.2-0.2-0.2-0.4,0-0.7C148.6,30.4,150.6,26.9,152.5,23.1z"
		/>
	<path class="st2" d="M155.5,29.9c-0.4,0.5-0.7,1-0.9,1.4c-0.2,0.4-0.4,0.9-0.7,1.5c0.1,0.8,0.2,1.2,0.2,1.4
		c0.1,0.1,0.2,0.3,0.5,0.3c0.1,0.1,0.3,0.1,0.5,0.1c0.2-0.1,0.4-0.1,0.6-0.2c-0.5,0.4-1.1,0.5-1.8,0.5c-0.4,0-0.8-0.1-1-0.3
		c-0.4-0.5-0.5-1-0.5-1.5c0-0.7,0.3-1.3,0.8-2c0.5-0.7,1-1.2,1.4-1.7c0.4-0.5,1.1-1,2-1.6c1-0.6,1.8-0.9,2.7-0.9
		c0.6,0,1,0.1,1.3,0.4c0.3,0.3,0.5,0.4,0.6,0.4c0.3-0.1,0.6-0.2,0.7-0.2v0.5l-3.5,5.8c-0.1,0.2,0,0.5,0.2,0.7
		c0.2,0.2,0.3,0.3,0.5,0.2c0.9-0.2,1.7-0.5,2.3-0.9c0.6-0.4,1.2-0.9,1.7-1.3c-0.4,0.6-1.2,1.2-2.2,1.7c-1,0.6-1.9,0.8-2.6,0.8
		c-0.4,0-0.7-0.1-0.8-0.2c-0.1-0.1-0.2-0.3-0.3-0.5c0-0.2-0.1-0.3-0.2-0.4c-0.2-0.1-0.4,0-0.6,0.2s-0.4,0.3-0.4,0.3
		c0.9-0.7,1.7-1.5,2.3-2.4c0.6-1,1.2-2.2,1.9-3.6c-0.2-0.3-0.4-0.5-0.6-0.6c-0.2-0.2-0.3-0.3-0.5-0.3c-0.2-0.1-0.4-0.1-0.5-0.1
		c-0.6,0-1.2,0.3-1.7,0.8C156.6,28.6,156,29.2,155.5,29.9z"/>
	<path class="st2" d="M158.5,41.7c0.1,0.2,0.2,0.4,0.4,0.5c0.2,0.1,0.4,0.1,0.7,0.1c0.3,0,0.5,0,0.7-0.1c0.2-0.1,0.6-0.2,1.3-0.3
		c0.7-0.2,1.4-1,2.3-2.4c0.9-1.4,1.7-2.8,2.4-4.1l-1.1,0.3c0.1-0.1,0.4-0.3,0.8-0.6c0.5-0.3,0.7-0.6,0.7-1c-0.8,0.3-1.3,0.5-1.7,0.7
		c-0.4,0.1-0.8,0.2-1.2,0.2c-0.6,0-0.9-0.1-1-0.4c-0.1-0.3-0.2-0.5-0.2-0.8c0-0.2,0-0.4,0-0.5c0-0.1,0-0.2,0.1-0.3l3.5-5.8
		c0.1-0.1,0.3-0.2,0.6-0.2c0.2,0,0.4,0.1,0.7,0.2c-1.2,2.2-2.5,4.4-3.7,6.6c0.1,0,0.2,0.1,0.5,0.4c0.3,0.2,0.6,0.3,0.8,0.2
		c1.4-0.6,2.5-1.5,3.2-2.5c0.7-1,1.7-2.7,2.9-4.9c0.1,0.1,0.3,0.1,0.6,0c0.3-0.1,0.4-0.1,0.5-0.1c0.2,0,0.3,0.1,0.4,0.4
		c-0.9,1.2-1.7,2.5-2.5,3.8s-1.4,2.5-1.9,3.7c1-0.3,1.9-0.7,2.7-1.2c0.8-0.5,1.5-1.1,2.1-1.9c0.1,0,0.1,0.1,0.1,0.3
		c0,0.2,0,0.4,0,0.4c-1.2,0.9-2.1,1.5-2.9,1.9s-1.6,0.8-2.7,1c-1.2,2.1-2.5,3.8-3.8,5.1c-1.3,1.3-2.9,2.2-4.8,2.8
		c-0.4-0.1-0.7-0.1-1.1-0.2c-0.4-0.1-0.6-0.4-0.6-0.8c0-0.5,0.1-0.9,0.4-1.2c0.2-0.3,0.9-0.9,2-1.9c1.1-0.9,2-1.6,2.7-2
		c0.7-0.4,1.5-0.8,2.6-1.2c-1.4,0.9-2.8,1.7-4.2,2.6c-1,0.9-1.7,1.6-2,1.9c-0.3,0.3-0.4,0.6-0.4,1C158.4,41.4,158.5,41.5,158.5,41.7
		z"/>
</g>
<g>
	<g class="st0">
		<path class="st3" d="M65.6,49.2H68v0.5h-2.4V49.2z"/>
	</g>
	<path class="st3" d="M77.6,44.9h1.8c0.5,0,2.4,0,2.4,1.8c0,1.3-1,1.7-1.8,1.8l2,3.3h-0.7l-1.9-3.3h-1.2v3.3h-0.6V44.9z M78.2,47.9
		h1.4c1.3,0,1.6-0.7,1.6-1.2c0-0.5-0.3-1.2-1.6-1.2h-1.4V47.9z"/>
	<path class="st3" d="M91.6,44.9h4.2v0.6h-3.6v2.4h3.3v0.6h-3.3v2.7h3.7v0.6h-4.3V44.9z"/>
	<path class="st3" d="M105.7,50.5c0.3,0.6,0.9,0.9,1.6,0.9c0.9,0,1.5-0.5,1.5-1.3c0-1.9-3.5-0.8-3.5-3.4c0-1.2,1-1.9,2.2-1.9
		c0.7,0,1.4,0.3,1.9,0.9l-0.6,0.4c-0.3-0.4-0.7-0.7-1.3-0.7c-0.8,0-1.5,0.4-1.5,1.3c0,2.1,3.5,0.8,3.5,3.4c0,1.2-1,1.9-2.1,1.9
		c-0.9,0-1.7-0.3-2.2-1L105.7,50.5z"/>
	<g class="st0">
		<path class="st3" d="M122.2,44.7c2.1,0,3.5,1.5,3.5,3.6s-1.5,3.6-3.5,3.6s-3.5-1.5-3.5-3.6S120.1,44.7,122.2,44.7z M122.2,51.4
			c1.8,0,2.9-1.3,2.9-3s-1.1-3-2.9-3s-2.9,1.3-2.9,3S120.4,51.4,122.2,51.4z"/>
	</g>
	<g class="st0">
		<path class="st3" d="M135.4,44.9h1.8c0.5,0,2.4,0,2.4,1.8c0,1.3-1,1.7-1.8,1.8l2,3.3h-0.7l-1.9-3.3H136v3.3h-0.6V44.9z M136,47.9
			h1.4c1.3,0,1.6-0.7,1.6-1.2c0-0.5-0.3-1.2-1.6-1.2H136V47.9z"/>
	</g>
	<g class="st0">
		<path class="st3" d="M150.9,45.5h-2.3v-0.6h5.3v0.6h-2.3v6.3h-0.6V45.5z"/>
	</g>
	<g class="st0">
		<path class="st3" d="M161.4,49.2h2.4v0.5h-2.4V49.2z"/>
	</g>
</g>
<path class="st3" d="M17.9,24c2.9-0.8,5.1-3,6.1-5.8c0.6-2.2,0.1-4.7-1.3-6.5c-1.7-2-4.6-2.7-7-1.7c-2.7,1.1-5,3.9-4.8,6.9
	c0.2,2,1.1,3.8,2.4,5.4c1.2,1.6,2.6,3.1,4.2,4.4c0.6,0.5,1.5-0.4,0.9-0.9c-1.2-1-2.3-2.1-3.3-3.3c-1.1-1.2-1.9-2.5-2.5-4
	c-0.5-1.3-0.5-2.8,0.1-4.1c0.6-1.2,1.4-2.1,2.5-2.8c1.9-1.3,4.4-1.2,6.2,0.3c1.4,1.3,2,3.2,1.7,5.1c-0.4,2.8-2.8,4.8-5.4,5.7
	C16.9,23.1,17.2,24.2,17.9,24"/>
<path class="st3" d="M35.3,22.2c-5.4,0.4-10.7,1.9-15.5,4.4c-4,2.1-7.6,5.1-9.5,9.3c-1,2.1-1.3,4.5-0.8,6.8c0.6,2.3,2.2,4.3,4.4,5.3
	c2.2,1.1,4.7,1.2,7,0.3c2.1-0.9,3.8-2.5,4.7-4.5c2.5-5.4-0.9-11.3-4.8-14.9c-0.6-0.5-1.4,0.3-0.9,0.9c3.2,3,6.3,7.6,5.1,12.2
	c-0.5,2-1.8,3.7-3.6,4.8c-1.9,1.1-4.2,1.3-6.2,0.6c-2.1-0.7-3.7-2.3-4.5-4.3c-0.6-2-0.4-4.2,0.4-6.1c1.5-3.9,4.8-6.8,8.4-8.8
	c4.9-2.6,10.2-4.2,15.7-4.6C36.1,23.3,36.1,22.1,35.3,22.2"/>
<path class="st3" d="M40.5,22.7c2.8-0.8,5.1-3,6-5.8c0.6-2.3,0.1-4.7-1.3-6.5c-1.7-2-4.6-2.7-7-1.6c-2.7,1.1-5,3.8-4.8,6.9
	c0.2,2,1.1,3.8,2.3,5.3c1.2,1.6,2.6,3.1,4.2,4.4c0.6,0.5,1.5-0.4,0.8-0.9c-1.2-1-2.3-2.1-3.3-3.3c-1.1-1.2-1.9-2.5-2.5-4
	c-0.5-1.3-0.5-2.8,0.1-4.1c0.6-1.1,1.5-2.1,2.5-2.8c1.9-1.3,4.4-1.2,6.2,0.3c1.4,1.3,2,3.2,1.7,5.1c-0.4,2.8-2.8,4.8-5.4,5.7
	C39.5,21.8,39.8,23,40.5,22.7"/>
<path class="st3" d="M57.9,22.2c-5.4,0.4-10.7,1.9-15.5,4.4c-4,2.1-7.7,5.1-9.5,9.3c-1,2.1-1.3,4.5-0.8,6.8c0.6,2.3,2.2,4.3,4.4,5.3
	c2.2,1.1,4.7,1.2,7,0.3c2.1-0.9,3.8-2.5,4.7-4.5c2.5-5.4-0.8-11.3-4.8-14.9c-0.6-0.5-1.4,0.3-0.8,0.9c3.2,3,6.3,7.6,5.1,12.2
	c-0.5,2-1.8,3.7-3.6,4.8c-1.9,1.1-4.2,1.3-6.2,0.6c-2.1-0.7-3.7-2.3-4.5-4.3c-0.6-2-0.5-4.2,0.4-6.1c1.5-3.9,4.8-6.8,8.3-8.8
	c4.9-2.6,10.2-4.2,15.7-4.6C58.7,23.3,58.7,22.1,57.9,22.2"/>
<path class="st3" d="M0.3,21c3.6,2.7,7.9,4.2,12.4,4.5c0.8,0,0.8-1.2,0-1.2C8.4,24,4.3,22.5,0.9,19.9C0.2,19.5-0.4,20.5,0.3,21"/>
</svg>
